<svg xmlns="http://www.w3.org/2000/svg" viewBox="0 0 800 450" width="100%" height="100%" role="img" aria-labelledby="title desc">
  <title id="title">TechlumeAI Editorial Visual Fallback</title>
  <desc id="desc">Branded geometric placeholder graphic representing AI and technology intelligence signal.</desc>
  <defs>
    <linearGradient id="ph-bg" x1="0" y1="0" x2="1" y2="1">
      <stop offset="0%" stop-color="#0F172A"/>
      <stop offset="100%" stop-color="#1E293B"/>
    </linearGradient>
  </defs>
  <rect width="800" height="450" fill="url(#ph-bg)"/>
  <g stroke="#334155" stroke-width="1" opacity="0.25">
    <path d="M 0 90 L 800 90 M 0 180 L 800 180 M 0 270 L 800 270 M 0 360 L 800 360" />
    <path d="M 160 0 L 160 450 M 320 0 L 320 450 M 480 0 L 480 450 M 640 0 L 640 450" />
  </g>
  <circle cx="400" cy="225" r="110" fill="#2563EB" opacity="0.12"/>
  <circle cx="400" cy="225" r="70" fill="#38BDF8" opacity="0.18"/>
  <rect x="336" y="193" width="128" height="64" rx="16" fill="#1E293B" stroke="#38BDF8" stroke-width="2"/>
  <circle cx="364" cy="225" r="6" fill="#38BDF8"/>
  <text x="382" y="230" fill="#F8FAFC" font-family="system-ui, -apple-system, sans-serif" font-size="14" font-weight="800">TECHLUMEAI</text>
  <path d="M 400 115 L 400 193 M 400 257 L 400 335" stroke="#38BDF8" stroke-width="2" stroke-dasharray="4 4" opacity="0.5"/>
</svg>
